<?xml version="1.0" encoding="UTF-8" standalone="no"?>
<!-- Created with Inkscape (http://www.inkscape.org/) -->

<svg
   width="97.722046mm"
   height="18.615879mm"
   viewBox="0 0 97.722046 18.615879"
   version="1.1"
   id="svg1"
   xml:space="preserve"
   inkscape:version="1.4.3 (unknown)"
   sodipodi:docname="TomoTools.svg"
   xmlns:inkscape="http://www.inkscape.org/namespaces/inkscape"
   xmlns:sodipodi="http://sodipodi.sourceforge.net/DTD/sodipodi-0.dtd"
   xmlns="http://www.w3.org/2000/svg"
   xmlns:svg="http://www.w3.org/2000/svg"><sodipodi:namedview
     id="namedview1"
     pagecolor="#ffffff"
     bordercolor="#000000"
     borderopacity="0.25"
     inkscape:showpageshadow="2"
     inkscape:pageopacity="0.0"
     inkscape:pagecheckerboard="0"
     inkscape:deskcolor="#d1d1d1"
     inkscape:document-units="mm"
     showguides="false"
     inkscape:zoom="0.86300161"
     inkscape:cx="-118.19213"
     inkscape:cy="108.34279"
     inkscape:window-width="2293"
     inkscape:window-height="888"
     inkscape:window-x="0"
     inkscape:window-y="0"
     inkscape:window-maximized="1"
     inkscape:current-layer="layer1" /><defs
     id="defs1" /><g
     inkscape:label="Layer 1"
     inkscape:groupmode="layer"
     id="layer1"
     transform="translate(-136.60382,-97.07111)"><g
       id="g1"><path
         style="font-weight:800;font-stretch:extra-expanded;font-size:16.9333px;font-family:'FOT-Seurat Pro';-inkscape-font-specification:'FOT-Seurat Pro Ultra-Bold Extra-Expanded';stroke-width:5"
         d="m 146.83154,105.01901 c 1.52399,0 1.52399,-2.89559 0,-2.89559 h -8.70372 c -1.524,0 -1.524,2.89559 0,2.89559 h 2.86173 v 9.41492 c 0,1.43933 2.98026,1.43933 2.98026,0 v -9.41492 z m 11.6501,5.26626 c 0,-2.98026 -2.26906,-5.41866 -5.30012,-5.41866 -3.03106,0 -5.30012,2.4384 -5.30012,5.41866 0,2.98026 2.26906,5.40172 5.30012,5.40172 3.03106,0 5.30012,-2.42146 5.30012,-5.40172 z m -2.84479,0 c 0,1.35466 -1.016,2.72626 -2.45533,2.72626 -1.43933,0 -2.45533,-1.3716 -2.45533,-2.72626 0,-1.35467 1.016,-2.76013 2.45533,-2.76013 1.43933,0 2.45533,1.40546 2.45533,2.76013 z m 17.84769,4.09786 v -4.85986 c 0,-3.58986 -1.524,-4.60586 -3.75919,-4.60586 -0.82974,0 -1.76107,0.3556 -2.4384,1.18533 -0.54186,-0.93133 -1.38853,-1.18533 -2.62466,-1.18533 -0.6604,0 -1.54093,0.18627 -2.032,0.99907 -0.0169,-0.6096 -0.59266,-0.89747 -1.20226,-0.89747 -0.6604,0 -1.35466,0.3556 -1.35466,1.04987 v 8.31425 c 0,1.49013 2.81092,1.49013 2.81092,0 v -4.92759 c 0,-1.38854 0.59267,-1.778 1.38853,-1.778 0.64347,0 1.08373,0.47413 1.08373,1.86266 v 4.84293 c 0,1.52399 2.77707,1.52399 2.77707,0 v -4.87679 c 0,-1.27 0.44026,-1.8288 1.23613,-1.8288 0.77893,0 1.28693,0.4064 1.28693,1.94733 v 4.75826 c 0,1.52399 2.82786,1.52399 2.82786,0 z m 12.15812,-4.09786 c 0,-2.98026 -2.26906,-5.41866 -5.30012,-5.41866 -3.03106,0 -5.30013,2.4384 -5.30013,5.41866 0,2.98026 2.26907,5.40172 5.30013,5.40172 3.03106,0 5.30012,-2.42146 5.30012,-5.40172 z m -2.84479,0 c 0,1.35466 -1.016,2.72626 -2.45533,2.72626 -1.43933,0 -2.45533,-1.3716 -2.45533,-2.72626 0,-1.35467 1.016,-2.76013 2.45533,-2.76013 1.43933,0 2.45533,1.40546 2.45533,2.76013 z m 13.20796,-5.26626 c 1.524,0 1.524,-2.89559 0,-2.89559 h -8.70372 c -1.52399,0 -1.52399,2.89559 0,2.89559 h 2.86173 v 9.41492 c 0,1.43933 2.98026,1.43933 2.98026,0 v -9.41492 z m 11.65011,5.26626 c 0,-2.98026 -2.26907,-5.41866 -5.30013,-5.41866 -3.03106,0 -5.30012,2.4384 -5.30012,5.41866 0,2.98026 2.26906,5.40172 5.30012,5.40172 3.03106,0 5.30013,-2.42146 5.30013,-5.40172 z m -2.8448,0 c 0,1.35466 -1.016,2.72626 -2.45533,2.72626 -1.43933,0 -2.45533,-1.3716 -2.45533,-2.72626 0,-1.35467 1.016,-2.76013 2.45533,-2.76013 1.43933,0 2.45533,1.40546 2.45533,2.76013 z m 14.56263,0 c 0,-2.98026 -2.26906,-5.41866 -5.30012,-5.41866 -3.03106,0 -5.30013,2.4384 -5.30013,5.41866 0,2.98026 2.26907,5.40172 5.30013,5.40172 3.03106,0 5.30012,-2.42146 5.30012,-5.40172 z m -2.84479,0 c 0,1.35466 -1.016,2.72626 -2.45533,2.72626 -1.43933,0 -2.45533,-1.3716 -2.45533,-2.72626 0,-1.35467 1.016,-2.76013 2.45533,-2.76013 1.43933,0 2.45533,1.40546 2.45533,2.76013 z m 7.38291,4.16559 v -11.46385 c 0,-0.71119 -0.7112,-1.06679 -1.43934,-1.06679 -0.71119,0 -1.43933,0.3556 -1.43933,1.06679 v 11.46385 c 0,1.43933 2.87867,1.43933 2.87867,0 z m 10.41398,-2.032 c 0,-1.74413 -0.9652,-2.81093 -2.4892,-3.23426 -0.86359,-0.23706 -2.26906,-0.4572 -3.01412,-0.7112 -0.2032,-0.0847 -0.38947,-0.28786 -0.38947,-0.47413 0,-0.0169 0,-0.0169 0,-0.0339 0.0339,-0.38946 0.3556,-0.71119 1.43933,-0.71119 0.94827,0 1.49013,0.3048 1.91346,0.89746 0.22014,0.32173 0.54187,0.44027 0.8636,0.44027 0.67733,0 1.3716,-0.57574 1.3716,-1.20227 0,-0.13546 -0.0339,-0.27093 -0.1016,-0.4064 -0.72813,-1.37159 -1.8796,-2.06586 -4.04706,-2.06586 -2.38759,0 -4.13172,1.30386 -4.13172,3.04799 0,1.55787 0.72813,2.50613 2.20133,2.91253 1.01599,0.28787 2.09972,0.42333 3.01412,0.72813 0.4572,0.1524 0.6604,0.38947 0.6604,0.77894 0,0.0169 0,0.0508 0,0.0847 -0.0169,0.5588 -0.52493,0.762 -1.65946,0.762 -0.82973,0 -1.6764,-0.4064 -2.04893,-1.13453 -0.2032,-0.38947 -0.5588,-0.5588 -0.9144,-0.5588 -0.6604,0 -1.38853,0.52493 -1.38853,1.20227 0,0.13546 0.0339,0.27093 0.1016,0.42333 0.7112,1.60866 2.15053,2.47226 4.25026,2.47226 2.94639,0 4.36879,-1.25306 4.36879,-3.21733 z"
         id="text1"
         aria-label="TomoTools" /><g
         id="layer1-5"
         transform="matrix(0.13897796,0,0,0.13897796,132.89689,82.141215)"><path
           style="font-weight:bold;font-stretch:expanded;font-size:36px;font-family:'D-DIN Exp';-inkscape-font-specification:'D-DIN Exp Bold Expanded';text-align:center;text-anchor:middle;white-space:pre;inline-size:156.655;stroke-width:7.416;stroke-linecap:round;stroke-linejoin:round"
           d="m -2.6212578,94.19145 c -1.584,-1.332 -3.744,-2.016 -6.516,-2.016 H -19.865258 v 24.84 h 4.716 v -9.432 h 5.8320002 c 2.88,0 5.112,-0.648 6.696,-2.016 1.584,-1.332 2.37599999,-3.204 2.37599999,-5.616 0,-2.484 -0.79199999,-4.392 -2.37599999,-5.76 z m -2.34,5.724 c 0,2.376 -1.332,3.528 -3.996,3.528 h -6.1920002 v -7.164 h 6.1920002 c 1.26,0 2.232,0.324 2.952,0.9 0.684,0.612 1.044,1.512 1.044,2.736 z m 7.7040093,-7.848 v 3.564 h 4.428 v -3.564 z m 0,6.228 v 18.72 h 4.428 v -18.72 z m 10.4759725,16.848 c 1.512,1.476 3.6,2.196 6.264,2.196 2.592,0 4.608,-0.612 6.084,-1.836 1.44,-1.224 2.196,-2.88 2.196,-5.04 v -0.144 h -4.356 v 0.144 c 0,0.9 -0.36,1.62 -1.008,2.124 -0.648,0.504 -1.548,0.756 -2.7,0.756 -1.44,0 -2.52,-0.36 -3.24,-1.08 -0.72,-0.72 -1.08,-1.908 -1.08,-3.564 v -2.124 c 0,-1.584 0.324,-2.772 1.044,-3.528 0.72,-0.72 1.764,-1.116 3.168,-1.116 1.188,0 2.124,0.288 2.808,0.828 0.684,0.54 1.044,1.26 1.044,2.196 v 0.144 h 4.356 v -0.216 c 0,-2.16 -0.756,-3.852 -2.196,-5.076 -1.476,-1.224 -3.528,-1.836 -6.12,-1.836 -2.664,0 -4.752,0.756 -6.264,2.196 -1.512,1.44 -2.268,3.564 -2.268,6.336 v 2.232 c 0,2.808 0.756,4.968 2.268,6.408 z m 22.284,-6.264 h 12.852 v -2.16 c 0,-2.808 -0.792,-4.968 -2.304,-6.48 -1.548,-1.512 -3.672,-2.268 -6.336,-2.268 -2.7,0 -4.824,0.792 -6.336,2.304 -1.548,1.512 -2.304,3.708 -2.304,6.552 v 1.62 c 0,2.916 0.756,5.112 2.34,6.624 1.584,1.512 3.744,2.268 6.516,2.268 2.412,0 4.356,-0.54 5.832,-1.62 1.476,-1.08 2.268,-2.556 2.412,-4.356 v -0.216 h -4.356 l -0.036,0.108 c -0.108,0.72 -0.504,1.26 -1.152,1.62 -0.648,0.396 -1.512,0.576 -2.52,0.576 -3.096,0 -4.608,-1.476 -4.608,-4.5 z m 0,-3.06 c 0.144,-2.664 1.548,-4.032 4.212,-4.032 1.26,0 2.268,0.324 3.024,0.972 0.756,0.648 1.152,1.584 1.152,2.808 v 0.252 z m 17.927969,9.72 c 1.008,1.008 2.592,1.476 4.716,1.476 h 2.484 v -3.852 h -1.692 c -0.972,0 -1.656,-0.18 -2.016,-0.54 -0.36,-0.36 -0.54,-1.008 -0.54,-1.944 v -18.504 h -4.464 v 18.792 c 0,2.052 0.504,3.564 1.512,4.572 z m 28.763971,-9.108 c -0.648,-0.936 -1.62,-1.692 -2.88,-2.196 1.116,-0.504 1.98,-1.188 2.592,-2.088 0.612,-0.9 0.936,-1.908 0.936,-3.06 0,-2.232 -0.756,-3.924 -2.232,-5.112 -1.512,-1.188 -3.636,-1.8 -6.444,-1.8 h -10.764 v 24.84 h 11.232 c 2.736,0 4.86,-0.612 6.336,-1.836 1.476,-1.224 2.232,-2.988 2.232,-5.292 0,-1.332 -0.36,-2.484 -1.008,-3.456 z m -14.076,-10.152 h 6.264 c 2.484,0 3.744,1.044 3.744,3.096 0,1.98 -1.332,2.952 -3.924,2.952 h -6.084 z m 10.404,13.284 c 0,2.232 -1.296,3.348 -3.816,3.348 h -6.588 v -6.48 h 6.408 c 2.664,0 3.996,1.044 3.996,3.132 z m 10.223975,5.58 c 1.512,1.476 3.6,2.196 6.264,2.196 2.628,0 4.68,-0.72 6.192001,-2.196 1.512,-1.44 2.268,-3.6 2.268,-6.408 v -2.232 c 0,-2.736 -0.756,-4.86 -2.268,-6.336 -1.512001,-1.44 -3.564001,-2.196 -6.192001,-2.196 -2.664,0 -4.752,0.756 -6.264,2.196 -1.512,1.44 -2.268,3.564 -2.268,6.336 v 2.232 c 0,2.808 0.756,4.968 2.268,6.408 z m 10.296,-6.444 c 0,3.096 -1.368,4.644 -4.032,4.644 -2.736,0 -4.104,-1.548 -4.104,-4.644 v -2.124 c 0,-3.096 1.368,-4.644 4.104,-4.644 1.296,0 2.268,0.396 2.988,1.152 0.684,0.756 1.044,1.908 1.044,3.492 z m 8.171991,-16.632 v 3.564 h 4.428 v -3.564 z m 0,6.228 v 18.72 h 4.428 v -18.72 z"
           id="text1-3"
           transform="translate(86.678112,16.570815)"
           aria-label="PicelBoi" /><g
           id="default_default-geometry_Lines"
           transform="matrix(0.02802526,0,0,0.02802526,17.819808,90.436367)"><polyline
             stroke="#000000"
             stroke-opacity="1"
             fill="none"
             stroke-linecap="round"
             stroke-width="25"
             points="594.757935,1208.812500 579.396606,1438.493896"
             id="polyline1" /><polyline
             stroke="#000000"
             stroke-opacity="1"
             fill="none"
             stroke-linecap="round"
             stroke-width="25"
             points="474.345703,1412.718628 487.556427,1173.744873"
             id="polyline2" /><polyline
             stroke="#000000"
             stroke-opacity="1"
             fill="none"
             stroke-linecap="round"
             stroke-width="25"
             points="474.345703,1412.718628 579.396606,1438.493896"
             id="polyline3" /><polyline
             stroke="#000000"
             stroke-opacity="1"
             fill="none"
             stroke-linecap="round"
             stroke-width="25"
             points="328.393585,1341.872070 432.520569,1470.369385 636.793701,1561.514160"
             id="polyline4" /><polyline
             stroke="#000000"
             stroke-opacity="1"
             fill="none"
             stroke-linecap="round"
             stroke-width="25"
             points="594.757935,1208.812500 717.845642,986.668701"
             id="polyline5" /><polyline
             stroke="#000000"
             stroke-opacity="1"
             fill="none"
             stroke-linecap="round"
             stroke-width="25"
             points="619.242065,938.020813 487.556427,1173.744873"
             id="polyline6" /><polyline
             stroke="#000000"
             stroke-opacity="1"
             fill="none"
             stroke-linecap="round"
             stroke-width="25"
             points="1037.878174,708.076050 1189.160645,668.991455 1219.446655,680.837280"
             id="polyline7" /><polyline
             stroke="#000000"
             stroke-opacity="1"
             fill="none"
             stroke-linecap="round"
             stroke-width="25"
             points="1080.966064,628.793823 961.973511,646.111816"
             id="polyline8" /><polyline
             stroke="#000000"
             stroke-opacity="1"
             fill="none"
             stroke-linecap="round"
             stroke-width="25"
             points="889.393250,652.961060 1043.023193,618.738281"
             id="polyline9" /><polyline
             stroke="#000000"
             stroke-opacity="1"
             fill="none"
             stroke-linecap="round"
             stroke-width="25"
             points="1037.878174,708.076050 866.966431,818.350098 717.845642,986.668701"
             id="polyline10" /><polyline
             stroke="#000000"
             stroke-opacity="1"
             fill="none"
             stroke-linecap="round"
             stroke-width="25"
             points="619.242065,938.020813 780.295471,758.418945 961.973511,646.111816"
             id="polyline11" /><polyline
             stroke="#000000"
             stroke-opacity="1"
             fill="none"
             stroke-linecap="round"
             stroke-width="25"
             points="889.393250,652.961060 718.912292,755.278076 572.801270,913.797363"
             id="polyline12" /><polyline
             stroke="#000000"
             stroke-opacity="1"
             fill="none"
             stroke-linecap="round"
             stroke-width="25"
             points="1080.966064,628.793823 1189.160645,668.991455"
             id="polyline13" /><polyline
             stroke="#000000"
             stroke-opacity="1"
             fill="none"
             stroke-linecap="round"
             stroke-width="25"
             points="1466.620117,1011.703613 1539.461914,1119.143799 1517.604736,1250.640137"
             id="polyline14" /><polyline
             stroke="#000000"
             stroke-opacity="1"
             fill="none"
             stroke-linecap="round"
             stroke-width="25"
             points="1446.813354,995.528381 1466.620117,1011.703613"
             id="polyline15" /><polyline
             stroke="#000000"
             stroke-opacity="1"
             fill="none"
             stroke-linecap="round"
             stroke-width="25"
             points="449.807007,1239.782837 449.061646,1132.456787"
             id="polyline16" /><polyline
             stroke="#000000"
             stroke-opacity="1"
             fill="none"
             stroke-linecap="round"
             stroke-width="25"
             points="520.166138,884.856201 465.407471,990.096252 449.061646,1132.456787"
             id="polyline17" /><polyline
             stroke="#000000"
             stroke-opacity="1"
             fill="none"
             stroke-linecap="round"
             stroke-width="25"
             points="584.943909,1359.437622 710.912720,1406.751221"
             id="polyline18" /><polyline
             stroke="#000000"
             stroke-opacity="1"
             fill="none"
             stroke-linecap="round"
             stroke-width="25"
             points="1324.406250,1278.030518 1147.123169,1371.806519 927.397766,1421.773682 710.912720,1406.751221"
             id="polyline19" /><polyline
             stroke="#000000"
             stroke-opacity="1"
             fill="none"
             stroke-linecap="round"
             stroke-width="25"
             points="1324.406250,1278.030518 1430.807739,1168.159668"
             id="polyline20" /><polyline
             stroke="#000000"
             stroke-opacity="1"
             fill="none"
             stroke-linecap="round"
             stroke-width="25"
             points="474.345703,1412.718628 445.076172,1346.628174"
             id="polyline21" /><polyline
             stroke="#000000"
             stroke-opacity="1"
             fill="none"
             stroke-linecap="round"
             stroke-width="25"
             points="454.642242,1124.610352 445.076172,1346.628174"
             id="polyline22" /><polyline
             stroke="#000000"
             stroke-opacity="1"
             fill="none"
             stroke-linecap="round"
             stroke-width="25"
             points="1329.060913,749.120605 1388.637329,833.037842 1439.450684,928.119385 1454.411743,1062.989746"
             id="polyline23" /><polyline
             stroke="#000000"
             stroke-opacity="1"
             fill="none"
             stroke-linecap="round"
             stroke-width="25"
             points="1394.008179,1391.680908 1178.784058,1514.973389 905.894348,1581.868774 636.793701,1561.514160"
             id="polyline24" /><polyline
             stroke="#000000"
             stroke-opacity="1"
             fill="none"
             stroke-linecap="round"
             stroke-width="25"
             points="1454.411743,1062.989746 1430.807739,1168.159668"
             id="polyline25" /><polyline
             stroke="#000000"
             stroke-opacity="1"
             fill="none"
             stroke-linecap="round"
             stroke-width="25"
             points="520.166138,884.856201 597.177734,790.190674 727.384583,706.910034"
             id="polyline26" /><polyline
             stroke="#000000"
             stroke-opacity="1"
             fill="none"
             stroke-linecap="round"
             stroke-width="25"
             points="1043.023193,618.738281 879.964355,631.076538 727.384583,706.910034"
             id="polyline27" /><polyline
             stroke="#000000"
             stroke-opacity="1"
             fill="none"
             stroke-linecap="round"
             stroke-width="25"
             points="1080.966064,628.793823 1043.023193,618.738281"
             id="polyline28" /><polyline
             stroke="#000000"
             stroke-opacity="1"
             fill="none"
             stroke-linecap="round"
             stroke-width="25"
             points="328.393585,1341.872070 334.465149,1205.395264 455.036194,1092.005371"
             id="polyline29" /><polyline
             stroke="#000000"
             stroke-opacity="1"
             fill="none"
             stroke-linecap="round"
             stroke-width="25"
             points="1394.008179,1391.680908 1517.604736,1250.640137"
             id="polyline30" /><polyline
             stroke="#000000"
             stroke-opacity="1"
             fill="none"
             stroke-linecap="round"
             stroke-width="25"
             points="454.642242,1124.610352 572.801270,913.797363"
             id="polyline31" /><polyline
             stroke="#000000"
             stroke-opacity="1"
             fill="none"
             stroke-linecap="round"
             stroke-width="25"
             points="1329.060913,749.120605 1219.446655,680.837280"
             id="polyline32" /></g></g></g></g></svg>
